<svg width="298" height="32" viewBox="0 0 298 32" fill="none" xmlns="http://www.w3.org/2000/svg">
<path d="M243.828 25.0547C243.828 25.4342 243.572 25.7076 243.206 25.7076C242.828 25.7076 242.583 25.4174 242.583 25.0547C242.583 24.692 242.828 24.4018 243.206 24.4018C243.572 24.4018 243.828 24.692 243.828 25.0547ZM226.561 24.4018C226.167 24.4018 225.939 24.692 225.939 25.0547C225.939 25.4174 226.167 25.7076 226.561 25.7076C226.922 25.7076 227.167 25.4342 227.167 25.0547C227.161 24.692 226.922 24.4018 226.561 24.4018ZM233.089 24.385C232.789 24.385 232.606 24.5804 232.561 24.8705H233.622C233.572 24.5525 233.378 24.385 233.089 24.385ZM239.078 24.4018C238.7 24.4018 238.472 24.692 238.472 25.0547C238.472 25.4174 238.7 25.7076 239.078 25.7076C239.456 25.7076 239.7 25.4342 239.7 25.0547C239.7 24.692 239.456 24.4018 239.078 24.4018ZM244.961 25.8583C244.961 25.875 244.978 25.8862 244.978 25.9196C244.978 25.9364 244.961 25.9475 244.961 25.981C244.944 25.9978 244.944 26.0089 244.933 26.0257C244.917 26.0424 244.906 26.0536 244.872 26.0536C244.856 26.0703 244.844 26.0703 244.811 26.0703C244.794 26.0703 244.783 26.0703 244.75 26.0536C244.733 26.0536 244.722 26.0368 244.706 26.0257C244.689 26.0089 244.678 25.9978 244.678 25.981C244.661 25.9531 244.661 25.9364 244.661 25.9196C244.661 25.8917 244.661 25.875 244.678 25.8583C244.678 25.8304 244.694 25.8136 244.706 25.7969C244.722 25.7801 244.733 25.7801 244.75 25.769C244.778 25.7522 244.794 25.7522 244.811 25.7522C244.839 25.7522 244.856 25.7522 244.872 25.769C244.9 25.7857 244.917 25.7857 244.933 25.7969C244.95 25.808 244.944 25.8304 244.961 25.8583ZM244.839 25.9364C244.867 25.9364 244.867 25.9196 244.883 25.9196C244.9 25.9029 244.9 25.8917 244.9 25.875C244.9 25.8583 244.9 25.8471 244.883 25.8304C244.867 25.8304 244.856 25.8136 244.822 25.8136H244.733V26.0089H244.778V25.9308H244.794L244.856 26.0089H244.9L244.839 25.9364ZM249 6.67857V26.3214C249 27.8002 247.806 29 246.333 29H219.667C218.194 29 217 27.8002 217 26.3214V6.67857C217 5.19978 218.194 4 219.667 4H246.333C247.806 4 249 5.19978 249 6.67857ZM220.556 14.4688C220.556 18.7377 224.006 22.1975 228.25 22.1975C229.761 22.1975 231.244 21.74 232.5 20.9085C228.45 17.5993 228.478 11.3549 232.5 8.04576C231.244 7.20871 229.761 6.7567 228.25 6.7567C224.006 6.75112 220.556 10.2165 220.556 14.4688ZM233 20.5402C236.917 17.471 236.9 11.4888 233 8.4029C229.1 11.4888 229.083 17.4766 233 20.5402ZM225.094 24.798C225.094 24.3125 224.778 23.9944 224.278 23.9777C224.022 23.9777 223.75 24.0558 223.567 24.3404C223.433 24.1116 223.206 23.9777 222.889 23.9777C222.678 23.9777 222.467 24.0558 222.3 24.279V24.0335H221.844V26.0815H222.3C222.3 25.0268 222.161 24.3962 222.8 24.3962C223.367 24.3962 223.256 24.9654 223.256 26.0815H223.694C223.694 25.0603 223.556 24.3962 224.194 24.3962C224.761 24.3962 224.65 24.9542 224.65 26.0815H225.106V24.798H225.094ZM227.589 24.0335H227.15V24.279C227 24.0949 226.789 23.9777 226.5 23.9777C225.928 23.9777 225.489 24.4353 225.489 25.0547C225.489 25.6797 225.928 26.1317 226.5 26.1317C226.789 26.1317 227 26.0257 227.15 25.8304V26.0871H227.589V24.0335ZM229.839 25.4621C229.839 24.625 228.567 25.0045 228.567 24.6138C228.567 24.2958 229.228 24.346 229.594 24.5525L229.778 24.1897C229.256 23.8493 228.1 23.8549 228.1 24.6473C228.1 25.4453 229.372 25.1105 229.372 25.4844C229.372 25.8359 228.622 25.808 228.222 25.529L228.028 25.8806C228.65 26.3047 229.839 26.2154 229.839 25.4621ZM231.806 25.981L231.683 25.6016C231.472 25.7188 231.006 25.8471 231.006 25.3728V24.4464H231.733V24.0335H231.006V23.4085H230.55V24.0335H230.128V24.4408H230.55V25.3728C230.55 26.3549 231.511 26.1763 231.806 25.981ZM232.544 25.2333H234.072C234.072 24.3292 233.661 23.9721 233.106 23.9721C232.517 23.9721 232.094 24.4129 232.094 25.0491C232.094 26.1931 233.35 26.3828 233.972 25.8415L233.761 25.5067C233.328 25.8638 232.672 25.8304 232.544 25.2333ZM235.828 24.0335C235.572 23.9219 235.183 23.933 234.983 24.279V24.0335H234.528V26.0815H234.983V24.9263C234.983 24.279 235.511 24.3627 235.694 24.4576L235.828 24.0335ZM236.417 25.0547C236.417 24.4185 237.061 24.2121 237.567 24.5859L237.778 24.2232C237.133 23.7154 235.961 23.9944 235.961 25.0603C235.961 26.1652 237.206 26.3884 237.778 25.8973L237.567 25.5346C237.056 25.8973 236.417 25.6797 236.417 25.0547ZM240.122 24.0335H239.667V24.279C239.206 23.6652 238.006 24.0112 238.006 25.0547C238.006 26.1261 239.25 26.433 239.667 25.8304V26.0871H240.122V24.0335ZM241.994 24.0335C241.861 23.9665 241.383 23.8717 241.15 24.279V24.0335H240.711V26.0815H241.15V24.9263C241.15 24.3125 241.65 24.3516 241.861 24.4576L241.994 24.0335ZM244.233 23.202H243.794V24.279C243.339 23.6708 242.133 23.9944 242.133 25.0547C242.133 26.1373 243.383 26.4275 243.794 25.8304V26.0871H244.233V23.202ZM244.656 19.0112V19.2679H244.7V19.0112H244.806V18.9665H244.55V19.0112H244.656ZM245.022 25.9196C245.022 25.8917 245.022 25.8583 245.006 25.8304C244.989 25.8136 244.978 25.7857 244.961 25.769C244.944 25.7522 244.917 25.7411 244.9 25.7243C244.872 25.7243 244.839 25.7076 244.811 25.7076C244.794 25.7076 244.767 25.7243 244.733 25.7243C244.706 25.7411 244.689 25.7522 244.672 25.769C244.644 25.7857 244.628 25.8136 244.628 25.8304C244.611 25.8583 244.611 25.8917 244.611 25.9196C244.611 25.9364 244.611 25.9643 244.628 25.9978C244.628 26.0145 244.644 26.0424 244.672 26.0592C244.689 26.0759 244.7 26.0871 244.733 26.1038C244.761 26.1205 244.794 26.1205 244.811 26.1205C244.839 26.1205 244.872 26.1205 244.9 26.1038C244.917 26.0871 244.944 26.0759 244.961 26.0592C244.978 26.0424 244.989 26.0145 245.006 25.9978C245.022 25.9643 245.022 25.9364 245.022 25.9196ZM245.2 18.9609H245.122L245.033 19.1562L244.944 18.9609H244.867V19.2623H244.911V19.0335L245 19.2288H245.061L245.139 19.0335V19.2623H245.2V18.9609ZM245.444 14.4688C245.444 10.2165 241.994 6.75112 237.75 6.75112C236.239 6.75112 234.756 7.20871 233.5 8.04018C237.506 11.3493 237.567 17.6105 233.5 20.9029C234.756 21.74 236.25 22.192 237.75 22.192C241.994 22.1975 245.444 18.7377 245.444 14.4688Z" fill="white"/>
<path d="M187.117 15.1217C187.117 15.1217 187.539 17.1975 187.633 17.6328H185.778C185.961 17.1362 186.667 15.2054 186.667 15.2054C186.656 15.2221 186.85 14.6975 186.961 14.3739L187.117 15.1217ZM193 6.67857V26.3214C193 27.8002 191.806 29 190.333 29H163.667C162.194 29 161 27.8002 161 26.3214V6.67857C161 5.19978 162.194 4 163.667 4H190.333C191.806 4 193 5.19978 193 6.67857ZM169.472 20.6964L172.983 12.0357H170.622L168.439 17.9509L168.2 16.7511L167.422 12.7667C167.294 12.2143 166.9 12.058 166.411 12.0357H162.817L162.778 12.2087C163.656 12.4319 164.439 12.7556 165.122 13.1629L167.111 20.6964H169.472ZM174.717 20.7076L176.117 12.0357H173.883L172.489 20.7076H174.717ZM182.489 17.8728C182.5 16.885 181.9 16.1317 180.617 15.5123C179.833 15.1161 179.356 14.8482 179.356 14.4408C179.367 14.0725 179.761 13.6931 180.639 13.6931C181.367 13.6763 181.9 13.8493 182.3 14.0223L182.5 14.1172L182.806 12.2422C182.367 12.0692 181.667 11.8739 180.806 11.8739C178.6 11.8739 177.05 13.0569 177.039 14.7422C177.022 15.9866 178.15 16.6786 178.994 17.0971C179.856 17.5212 180.15 17.8002 180.15 18.1741C180.139 18.7545 179.45 19.0223 178.811 19.0223C177.922 19.0223 177.444 18.8828 176.717 18.5592L176.422 18.4196L176.111 20.3672C176.633 20.6071 177.6 20.8192 178.6 20.8304C180.944 20.8359 182.472 19.6696 182.489 17.8728ZM190.333 20.7076L188.533 12.0357H186.806C186.272 12.0357 185.867 12.192 185.639 12.7556L182.322 20.7076H184.667C184.667 20.7076 185.05 19.6362 185.133 19.4074H188C188.067 19.7143 188.267 20.7076 188.267 20.7076H190.333Z" fill="white"/>
<path d="M131.828 25.0547C131.828 25.4342 131.572 25.7076 131.206 25.7076C130.828 25.7076 130.583 25.4174 130.583 25.0547C130.583 24.692 130.828 24.4018 131.206 24.4018C131.572 24.4018 131.828 24.692 131.828 25.0547ZM114.561 24.4018C114.167 24.4018 113.939 24.692 113.939 25.0547C113.939 25.4174 114.167 25.7076 114.561 25.7076C114.922 25.7076 115.167 25.4342 115.167 25.0547C115.161 24.692 114.922 24.4018 114.561 24.4018ZM121.089 24.385C120.789 24.385 120.606 24.5804 120.561 24.8705H121.622C121.572 24.5525 121.378 24.385 121.089 24.385ZM127.078 24.4018C126.7 24.4018 126.472 24.692 126.472 25.0547C126.472 25.4174 126.7 25.7076 127.078 25.7076C127.456 25.7076 127.7 25.4342 127.7 25.0547C127.7 24.692 127.456 24.4018 127.078 24.4018ZM132.961 25.8583C132.961 25.875 132.978 25.8862 132.978 25.9196C132.978 25.9364 132.961 25.9475 132.961 25.981C132.944 25.9978 132.944 26.0089 132.933 26.0257C132.917 26.0424 132.906 26.0536 132.872 26.0536C132.856 26.0703 132.844 26.0703 132.811 26.0703C132.794 26.0703 132.783 26.0703 132.75 26.0536C132.733 26.0536 132.722 26.0368 132.706 26.0257C132.689 26.0089 132.678 25.9978 132.678 25.981C132.661 25.9531 132.661 25.9364 132.661 25.9196C132.661 25.8917 132.661 25.875 132.678 25.8583C132.678 25.8304 132.694 25.8136 132.706 25.7969C132.722 25.7801 132.733 25.7801 132.75 25.769C132.778 25.7522 132.794 25.7522 132.811 25.7522C132.839 25.7522 132.856 25.7522 132.872 25.769C132.9 25.7857 132.917 25.7857 132.933 25.7969C132.95 25.808 132.944 25.8304 132.961 25.8583ZM132.839 25.9364C132.867 25.9364 132.867 25.9196 132.883 25.9196C132.9 25.9029 132.9 25.8917 132.9 25.875C132.9 25.8583 132.9 25.8471 132.883 25.8304C132.867 25.8304 132.856 25.8136 132.822 25.8136H132.733V26.0089H132.778V25.9308H132.794L132.856 26.0089H132.9L132.839 25.9364ZM137 6.67857V26.3214C137 27.8002 135.806 29 134.333 29H107.667C106.194 29 105 27.8002 105 26.3214V6.67857C105 5.19978 106.194 4 107.667 4H134.333C135.806 4 137 5.19978 137 6.67857ZM108.556 14.4688C108.556 18.7377 112.006 22.1975 116.25 22.1975C117.761 22.1975 119.244 21.74 120.5 20.9085C116.45 17.5993 116.478 11.3549 120.5 8.04576C119.244 7.20871 117.761 6.7567 116.25 6.7567C112.006 6.75112 108.556 10.2165 108.556 14.4688ZM121 20.5402C124.917 17.471 124.9 11.4888 121 8.4029C117.1 11.4888 117.083 17.4766 121 20.5402ZM113.094 24.798C113.094 24.3125 112.778 23.9944 112.278 23.9777C112.022 23.9777 111.75 24.0558 111.567 24.3404C111.433 24.1116 111.206 23.9777 110.889 23.9777C110.678 23.9777 110.467 24.0558 110.3 24.279V24.0335H109.844V26.0815H110.3C110.3 25.0268 110.161 24.3962 110.8 24.3962C111.367 24.3962 111.256 24.9654 111.256 26.0815H111.694C111.694 25.0603 111.556 24.3962 112.194 24.3962C112.761 24.3962 112.65 24.9542 112.65 26.0815H113.106V24.798H113.094ZM115.589 24.0335H115.15V24.279C115 24.0949 114.789 23.9777 114.5 23.9777C113.928 23.9777 113.489 24.4353 113.489 25.0547C113.489 25.6797 113.928 26.1317 114.5 26.1317C114.789 26.1317 115 26.0257 115.15 25.8304V26.0871H115.589V24.0335ZM117.839 25.4621C117.839 24.625 116.567 25.0045 116.567 24.6138C116.567 24.2958 117.228 24.346 117.594 24.5525L117.778 24.1897C117.256 23.8493 116.1 23.8549 116.1 24.6473C116.1 25.4453 117.372 25.1105 117.372 25.4844C117.372 25.8359 116.622 25.808 116.222 25.529L116.028 25.8806C116.65 26.3047 117.839 26.2154 117.839 25.4621ZM119.806 25.981L119.683 25.6016C119.472 25.7188 119.006 25.8471 119.006 25.3728V24.4464H119.733V24.0335H119.006V23.4085H118.55V24.0335H118.128V24.4408H118.55V25.3728C118.55 26.3549 119.511 26.1763 119.806 25.981ZM120.544 25.2333H122.072C122.072 24.3292 121.661 23.9721 121.106 23.9721C120.517 23.9721 120.094 24.4129 120.094 25.0491C120.094 26.1931 121.35 26.3828 121.972 25.8415L121.761 25.5067C121.328 25.8638 120.672 25.8304 120.544 25.2333ZM123.828 24.0335C123.572 23.9219 123.183 23.933 122.983 24.279V24.0335H122.528V26.0815H122.983V24.9263C122.983 24.279 123.511 24.3627 123.694 24.4576L123.828 24.0335ZM124.417 25.0547C124.417 24.4185 125.061 24.2121 125.567 24.5859L125.778 24.2232C125.133 23.7154 123.961 23.9944 123.961 25.0603C123.961 26.1652 125.206 26.3884 125.778 25.8973L125.567 25.5346C125.056 25.8973 124.417 25.6797 124.417 25.0547ZM128.122 24.0335H127.667V24.279C127.206 23.6652 126.006 24.0112 126.006 25.0547C126.006 26.1261 127.25 26.433 127.667 25.8304V26.0871H128.122V24.0335ZM129.994 24.0335C129.861 23.9665 129.383 23.8717 129.15 24.279V24.0335H128.711V26.0815H129.15V24.9263C129.15 24.3125 129.65 24.3516 129.861 24.4576L129.994 24.0335ZM132.233 23.202H131.794V24.279C131.339 23.6708 130.133 23.9944 130.133 25.0547C130.133 26.1373 131.383 26.4275 131.794 25.8304V26.0871H132.233V23.202ZM132.656 19.0112V19.2679H132.7V19.0112H132.806V18.9665H132.55V19.0112H132.656ZM133.022 25.9196C133.022 25.8917 133.022 25.8583 133.006 25.8304C132.989 25.8136 132.978 25.7857 132.961 25.769C132.944 25.7522 132.917 25.7411 132.9 25.7243C132.872 25.7243 132.839 25.7076 132.811 25.7076C132.794 25.7076 132.767 25.7243 132.733 25.7243C132.706 25.7411 132.689 25.7522 132.672 25.769C132.644 25.7857 132.628 25.8136 132.628 25.8304C132.611 25.8583 132.611 25.8917 132.611 25.9196C132.611 25.9364 132.611 25.9643 132.628 25.9978C132.628 26.0145 132.644 26.0424 132.672 26.0592C132.689 26.0759 132.7 26.0871 132.733 26.1038C132.761 26.1205 132.794 26.1205 132.811 26.1205C132.839 26.1205 132.872 26.1205 132.9 26.1038C132.917 26.0871 132.944 26.0759 132.961 26.0592C132.978 26.0424 132.989 26.0145 133.006 25.9978C133.022 25.9643 133.022 25.9364 133.022 25.9196ZM133.2 18.9609H133.122L133.033 19.1562L132.944 18.9609H132.867V19.2623H132.911V19.0335L133 19.2288H133.061L133.139 19.0335V19.2623H133.2V18.9609ZM133.444 14.4688C133.444 10.2165 129.994 6.75112 125.75 6.75112C124.239 6.75112 122.756 7.20871 121.5 8.04018C125.506 11.3493 125.567 17.6105 121.5 20.9029C122.756 21.74 124.25 22.192 125.75 22.192C129.994 22.1975 133.444 18.7377 133.444 14.4688Z" fill="white"/>
<path d="M75.1167 15.1217C75.1167 15.1217 75.5389 17.1975 75.6333 17.6328H73.7778C73.9611 17.1362 74.6667 15.2054 74.6667 15.2054C74.6556 15.2221 74.85 14.6975 74.9611 14.3739L75.1167 15.1217ZM81 6.67857V26.3214C81 27.8002 79.8056 29 78.3333 29H51.6667C50.1944 29 49 27.8002 49 26.3214V6.67857C49 5.19978 50.1944 4 51.6667 4H78.3333C79.8056 4 81 5.19978 81 6.67857ZM57.4722 20.6964L60.9833 12.0357H58.6222L56.4389 17.9509L56.2 16.7511L55.4222 12.7667C55.2944 12.2143 54.9 12.058 54.4111 12.0357H50.8167L50.7778 12.2087C51.6556 12.4319 52.4389 12.7556 53.1222 13.1629L55.1111 20.6964H57.4722ZM62.7167 20.7076L64.1167 12.0357H61.8833L60.4889 20.7076H62.7167ZM70.4889 17.8728C70.5 16.885 69.9 16.1317 68.6167 15.5123C67.8333 15.1161 67.3556 14.8482 67.3556 14.4408C67.3667 14.0725 67.7611 13.6931 68.6389 13.6931C69.3667 13.6763 69.9 13.8493 70.3 14.0223L70.5 14.1172L70.8056 12.2422C70.3667 12.0692 69.6667 11.8739 68.8056 11.8739C66.6 11.8739 65.05 13.0569 65.0389 14.7422C65.0222 15.9866 66.15 16.6786 66.9944 17.0971C67.8556 17.5212 68.15 17.8002 68.15 18.1741C68.1389 18.7545 67.45 19.0223 66.8111 19.0223C65.9222 19.0223 65.4444 18.8828 64.7167 18.5592L64.4222 18.4196L64.1111 20.3672C64.6333 20.6071 65.6 20.8192 66.6 20.8304C68.9444 20.8359 70.4722 19.6696 70.4889 17.8728ZM78.3333 20.7076L76.5333 12.0357H74.8056C74.2722 12.0357 73.8667 12.192 73.6389 12.7556L70.3222 20.7076H72.6667C72.6667 20.7076 73.05 19.6362 73.1333 19.4074H76C76.0667 19.7143 76.2667 20.7076 76.2667 20.7076H78.3333Z" fill="white"/>
</svg>
