<svg width="298" height="32" viewBox="0 0 298 32" fill="none" xmlns="http://www.w3.org/2000/svg">
<path d="M81 3.42857V28.5714C81 30.4643 79.4643 32 77.5714 32H71.4786V19.3429H75.8071L76.4286 14.5143H71.4786V11.4286C71.4786 10.0286 71.8643 9.07857 73.8714 9.07857H76.4286V4.76429C75.9857 4.70714 74.4714 4.57143 72.7 4.57143C69.0143 4.57143 66.4857 6.82143 66.4857 10.9571V14.5214H62.1429V19.35H66.4929V32H52.4286C50.5357 32 49 30.4643 49 28.5714V3.42857C49 1.53571 50.5357 0 52.4286 0H77.5714C79.4643 0 81 1.53571 81 3.42857Z" fill="white"/>
<path d="M248.331 8.44226C247.963 7.08731 246.879 6.02019 245.502 5.65805C243.007 5 233 5 233 5C233 5 222.993 5 220.498 5.65805C219.121 6.02025 218.037 7.08731 217.669 8.44226C217 10.8982 217 16.0222 217 16.0222C217 16.0222 217 21.1463 217.669 23.6022C218.037 24.9572 219.121 25.9798 220.498 26.3419C222.993 27 233 27 233 27C233 27 243.007 27 245.502 26.3419C246.879 25.9798 247.963 24.9572 248.331 23.6022C249 21.1463 249 16.0222 249 16.0222C249 16.0222 249 10.8982 248.331 8.44226ZM229.727 20.6745V11.37L238.091 16.0223L229.727 20.6745Z" fill="white"/>
<path d="M112.163 32H105.528V10.6357H112.163V32ZM108.842 7.72143C106.721 7.72143 105 5.96429 105 3.84286C105 1.72143 106.721 0 108.842 0C110.963 0 112.684 1.72143 112.684 3.84286C112.684 5.96429 110.963 7.72143 108.842 7.72143ZM136.993 32H130.373V21.6C130.373 19.1214 130.323 15.9429 126.924 15.9429C123.474 15.9429 122.946 18.6357 122.946 21.4214V32H116.319V10.6357H122.682V13.55H122.775C123.66 11.8714 125.824 10.1 129.052 10.1C135.765 10.1 137 14.5214 137 20.2643V32H136.993Z" fill="white"/>
<path d="M177.004 7.7956C172.463 7.7956 168.801 11.4587 168.801 16C168.801 20.5413 172.463 24.2044 177.004 24.2044C181.544 24.2044 185.206 20.5413 185.206 16C185.206 11.4587 181.544 7.7956 177.004 7.7956ZM177.004 21.3339C174.069 21.3339 171.671 18.9419 171.671 16C171.671 13.0581 174.062 10.6661 177.004 10.6661C179.945 10.6661 182.336 13.0581 182.336 16C182.336 18.9419 179.938 21.3339 177.004 21.3339ZM187.455 7.46C187.455 8.52393 186.598 9.37365 185.542 9.37365C184.478 9.37365 183.628 8.51679 183.628 7.46C183.628 6.40321 184.485 5.54636 185.542 5.54636C186.598 5.54636 187.455 6.40321 187.455 7.46ZM192.888 9.40221C192.766 6.83878 192.181 4.56811 190.303 2.69731C188.433 0.826509 186.163 0.240991 183.6 0.112462C180.959 -0.0374873 173.041 -0.0374873 170.4 0.112462C167.844 0.23385 165.574 0.819368 163.697 2.69017C161.819 4.56097 161.241 6.83164 161.112 9.39507C160.963 12.037 160.963 19.9558 161.112 22.5978C161.234 25.1612 161.819 27.4319 163.697 29.3027C165.574 31.1735 167.837 31.759 170.4 31.8875C173.041 32.0375 180.959 32.0375 183.6 31.8875C186.163 31.7661 188.433 31.1806 190.303 29.3027C192.174 27.4319 192.759 25.1612 192.888 22.5978C193.037 19.9558 193.037 12.0442 192.888 9.40221ZM189.475 25.4326C188.918 26.8321 187.84 27.9103 186.434 28.4744C184.328 29.3098 179.331 29.117 177.004 29.117C174.676 29.117 169.672 29.3027 167.573 28.4744C166.174 27.9174 165.096 26.8392 164.532 25.4326C163.697 23.3261 163.889 18.3278 163.889 16C163.889 13.6722 163.704 8.66674 164.532 6.56744C165.089 5.16791 166.167 4.0897 167.573 3.52561C169.679 2.69017 174.676 2.88296 177.004 2.88296C179.331 2.88296 184.335 2.69731 186.434 3.52561C187.833 4.08256 188.911 5.16077 189.475 6.56744C190.31 8.67388 190.118 13.6722 190.118 16C190.118 18.3278 190.31 23.3333 189.475 25.4326Z" fill="white"/>
</svg>
